#!OML:ASF H:\Terrain\Patient Classification 1\Walking\liu\liu.ASF
:FULLY-SPECIFIED
:DEGREES
324
root 10.714781 18.006670 10.140745 7.925665 10.733139 4.884616
lowerback -8.873612 -5.372411 -7.123941
upperback -1.191586 -6.604895 2.029313
thorax 4.672712 -3.413377 5.297182
lowerneck -21.544050 -5.938581 -14.511530
upperneck 23.937981 -7.500119 14.096170
head 12.343320 -2.978569 6.468374
rclavicle -0.000000 -0.000000
rhumerus -55.798378 5.323725 -90.751984
rradius 33.470470
rwrist -17.286501
rhand -31.719269 -26.101240
rfingers 7.837522
rthumb -2.412344 -59.066479
lclavicle -0.000000 -0.000000
lhumerus -24.405701 -44.117699 109.022209
lradius 45.480270
lwrist 10.386662
lhand -5.812257 -27.021170
lfingers 7.837522
lthumb 22.572659 4.807847
rfemur -47.220253 1.602942 14.327499
rtibia 38.296722
rfoot -7.513286 -2.054316
rtoes -29.300041
lfemur 26.991692 4.710409 -24.392281
ltibia -0.000000
lfoot -7.878288 -5.561281
ltoes -16.335220
325
root 10.685906 17.992701 10.345786 7.739479 10.592505 4.473337
lowerback -8.629457 -5.235406 -6.701266
upperback -1.223244 -6.476228 2.051720
thorax 4.445309 -3.336300 5.124779
lowerneck -21.194691 -5.754001 -14.528690
upperneck 23.320219 -7.353434 14.615040
head 12.046320 -2.864807 6.671610
rclavicle 0.000000 -0.000000
rhumerus -55.959862 5.529392 -90.971436
rradius 33.634811
rwrist -17.891171
rhand -32.032772 -25.604151
rfingers 7.837522
rthumb -2.715119 -58.566093
lclavicle 0.000000 -0.000000
lhumerus -25.282181 -44.179413 109.565720
lradius 45.213520
lwrist 10.487521
lhand -5.958491 -27.068691
lfingers 7.837522
lthumb 22.432190 4.775386
rfemur -47.250938 1.557281 15.204090
rtibia 39.708241
rfoot -6.489912 -1.578203
rtoes -28.554020
lfemur 27.768950 5.067535 -23.519321
ltibia -0.000000
lfoot -6.173783 -5.761338
ltoes -17.569311
326
root 10.662278 17.987310 10.561440 7.643900 10.357743 4.144338
lowerback -8.652842 -5.111678 -6.426354
upperback -1.278882 -6.336429 2.111472
thorax 4.360895 -3.259542 5.054533
lowerneck -20.784060 -5.611221 -14.348181
upperneck 22.895510 -7.192955 14.532209
head 11.776160 -2.799269 6.616214
rclavicle 0.000000 0.000000
rhumerus -55.995613 5.614158 -90.903336
rradius 33.565620
rwrist -17.421141
rhand -31.307539 -24.441120
rfingers 7.837522
rthumb -2.014672 -57.410210
lclavicle 0.000000 0.000000
lhumerus -26.281200 -43.771858 110.213402
lradius 44.868450
lwrist 10.223015
lhand -6.441721 -27.224892
lfingers 7.837522
lthumb 21.967770 4.668235
rfemur -47.402847 1.642586 15.917770
rtibia 41.137688
rfoot -6.022511 -1.064708
rtoes -26.857161
lfemur 28.422569 5.502486 -22.744040
ltibia 0.000000
lfoot -4.245879 -5.469299
ltoes -17.213900
327
root 10.638012 17.981590 10.772904 7.740766 10.219505 3.821158
lowerback -8.835101 -5.088578 -6.206574
upperback -1.408099 -6.320369 2.239127
thorax 4.316939 -3.244879 5.059846
lowerneck -20.702000 -5.570961 -14.355221
upperneck 22.957109 -7.133687 14.470170
head 11.770990 -2.782549 6.605599
rclavicle 0.000000 -0.000000
rhumerus -55.788483 6.158427 -91.144348
rradius 33.274338
rwrist -17.222809
rhand -31.386190 -24.490292
rfingers 7.837522
rthumb -2.090682 -57.458611
lclavicle 0.000000 -0.000000
lhumerus -27.259209 -42.622471 110.895401
lradius 44.276100
lwrist 9.773808
lhand -7.032355 -27.430040
lfingers 7.837522
lthumb 21.399950 4.521396
rfemur -47.611080 1.627461 16.632000
rtibia 42.456482
rfoot -6.023831 -0.280202
rtoes -25.574121
lfemur 28.873569 5.844795 -22.011992
ltibia -0.000000
lfoot -2.277297 -5.004560
ltoes -16.337971
